<svg width="23" height="36" viewBox="0 0 23 36" fill="none" xmlns="http://www.w3.org/2000/svg">
<path d="M19.2495 3.69772L19.2496 3.69782C21.2935 5.70697 22.458 8.41919 22.4982 11.2571L22.4982 11.2595C22.5363 13.267 21.962 15.2405 20.8475 16.9286L20.8312 16.9534L20.8178 16.98L11.9549 34.6562H11.0476L2.18187 16.9799L2.16869 16.9536L2.15251 16.929C1.0406 15.2408 0.466146 13.2668 0.501546 11.2588L0.501572 11.257C0.541155 8.41886 1.70529 5.70622 3.74901 3.69662C5.79222 1.68754 8.55343 0.53986 11.4461 0.5H11.5536C14.446 0.540447 17.2068 1.6885 19.2495 3.69772ZM11.3449 2.31606L11.3152 2.3125H11.2854H11.2825H11.2722L11.2619 2.31292C8.88683 2.41088 6.63883 3.40107 4.98181 5.08188C3.32472 6.76276 2.38508 9.00633 2.35906 11.3506C2.33596 13.0185 2.82972 14.6528 3.77343 16.0365L3.80723 16.093L3.84349 16.1748L3.84835 16.1858L3.85372 16.1965L11.053 30.5402L11.5 31.4308L11.9468 30.5401L19.1489 16.1823L19.1503 16.1796L19.19 16.0991L19.2292 16.0337C20.173 14.6498 20.6668 13.0152 20.6435 11.3471C20.6161 9.0057 19.6776 6.76517 18.0234 5.08552C16.3692 3.40583 14.1251 2.41455 11.7529 2.31296L11.7092 2.31108L11.6657 2.31686L11.5167 2.33666L11.3449 2.31606ZM13.3105 8.49503C12.9437 8.25386 12.5326 8.08635 12.1008 8.00174C11.6689 7.91712 11.2244 7.91697 10.7925 8.0013C10.3606 8.08563 9.94939 8.25285 9.58243 8.49378C9.21545 8.73472 8.89977 9.04474 8.65376 9.40649C8.40775 9.76827 8.23632 10.1746 8.14964 10.6023C8.06295 11.0301 8.0628 11.4705 8.14919 11.8983C8.23557 12.3261 8.40672 12.7325 8.65249 13.0944C8.89824 13.4564 9.21371 13.7666 9.58053 14.0078C10.3211 14.4947 11.2266 14.6717 12.0985 14.5015C12.9706 14.3313 13.7405 13.8269 14.2373 13.0963C14.7343 12.3654 14.9164 11.4689 14.7419 10.6045C14.5674 9.74033 14.0514 8.98213 13.3105 8.49503ZM16.6846 10.2091L17.1753 10.1133L16.6846 10.2092C16.8155 10.8793 16.8088 11.5683 16.6649 12.2358C16.521 12.9034 16.2426 13.5364 15.8458 14.0974C15.449 14.6585 14.9417 15.1364 14.3533 15.5027C13.2013 16.2199 11.8086 16.4662 10.4732 16.1878C9.13783 15.9095 7.96846 15.1292 7.21322 14.0166C6.45818 12.9043 6.17609 11.5471 6.42558 10.2346C6.6751 8.92182 7.43718 7.75474 8.55208 6.98412C9.12166 6.59042 9.76603 6.31242 10.4473 6.16685C11.1286 6.02128 11.8328 6.01117 12.5181 6.13712C13.2035 6.26308 13.8559 6.52249 14.437 6.89973C15.0181 7.27695 15.516 7.76427 15.9018 8.33265C16.2876 8.901 16.5536 9.53903 16.6846 10.2091Z" fill="#131313"/>
<path d="M19.2495 3.69772L19.2496 3.69782C21.2935 5.70697 22.458 8.41919 22.4982 11.2571L22.4982 11.2595C22.5363 13.267 21.962 15.2405 20.8475 16.9286L20.8312 16.9534L20.8178 16.98L11.9549 34.6562H11.0476L2.18187 16.9799L2.16869 16.9536L2.15251 16.929C1.0406 15.2408 0.466146 13.2668 0.501546 11.2588L0.501572 11.257C0.541155 8.41886 1.70529 5.70622 3.74901 3.69662C5.79222 1.68754 8.55343 0.53986 11.4461 0.5H11.5536C14.446 0.540447 17.2068 1.6885 19.2495 3.69772ZM11.3449 2.31606L11.3152 2.3125H11.2854H11.2825H11.2722L11.2619 2.31292C8.88683 2.41088 6.63883 3.40107 4.98181 5.08188C3.32472 6.76276 2.38508 9.00633 2.35906 11.3506C2.33596 13.0185 2.82972 14.6528 3.77343 16.0365L3.80723 16.093L3.84349 16.1748L3.84835 16.1858L3.85372 16.1965L11.053 30.5402L11.5 31.4308L11.9468 30.5401L19.1489 16.1823L19.1503 16.1796L19.19 16.0991L19.2292 16.0337C20.173 14.6498 20.6668 13.0152 20.6435 11.3471C20.6161 9.0057 19.6776 6.76517 18.0234 5.08552C16.3692 3.40583 14.1251 2.41455 11.7529 2.31296L11.7092 2.31108L11.6657 2.31686L11.5167 2.33666L11.3449 2.31606ZM13.3105 8.49503C12.9437 8.25386 12.5326 8.08635 12.1008 8.00174C11.6689 7.91712 11.2244 7.91697 10.7925 8.0013C10.3606 8.08563 9.94939 8.25285 9.58243 8.49378C9.21545 8.73472 8.89977 9.04474 8.65376 9.40649C8.40775 9.76827 8.23632 10.1746 8.14964 10.6023C8.06295 11.0301 8.0628 11.4705 8.14919 11.8983C8.23557 12.3261 8.40672 12.7325 8.65249 13.0944C8.89824 13.4564 9.21371 13.7666 9.58053 14.0078C10.3211 14.4947 11.2266 14.6717 12.0985 14.5015C12.9706 14.3313 13.7405 13.8269 14.2373 13.0963C14.7343 12.3654 14.9164 11.4689 14.7419 10.6045C14.5674 9.74033 14.0514 8.98213 13.3105 8.49503ZM16.6846 10.2091L17.1753 10.1133L16.6846 10.2092C16.8155 10.8793 16.8088 11.5683 16.6649 12.2358C16.521 12.9034 16.2426 13.5364 15.8458 14.0974C15.449 14.6585 14.9417 15.1364 14.3533 15.5027C13.2013 16.2199 11.8086 16.4662 10.4732 16.1878C9.13783 15.9095 7.96846 15.1292 7.21322 14.0166C6.45818 12.9043 6.17609 11.5471 6.42558 10.2346C6.6751 8.92182 7.43718 7.75474 8.55208 6.98412C9.12166 6.59042 9.76603 6.31242 10.4473 6.16685C11.1286 6.02128 11.8328 6.01117 12.5181 6.13712C13.2035 6.26308 13.8559 6.52249 14.437 6.89973C15.0181 7.27695 15.516 7.76427 15.9018 8.33265C16.2876 8.901 16.5536 9.53903 16.6846 10.2091Z" stroke="#312E89"/>
<path d="M19.2495 3.69772L19.2496 3.69782C21.2935 5.70697 22.458 8.41919 22.4982 11.2571L22.4982 11.2595C22.5363 13.267 21.962 15.2405 20.8475 16.9286L20.8312 16.9534L20.8178 16.98L11.9549 34.6562H11.0476L2.18187 16.9799L2.16869 16.9536L2.15251 16.929C1.0406 15.2408 0.466146 13.2668 0.501546 11.2588L0.501572 11.257C0.541155 8.41886 1.70529 5.70622 3.74901 3.69662C5.79222 1.68754 8.55343 0.53986 11.4461 0.5H11.5536C14.446 0.540447 17.2068 1.6885 19.2495 3.69772ZM11.3449 2.31606L11.3152 2.3125H11.2854H11.2825H11.2722L11.2619 2.31292C8.88683 2.41088 6.63883 3.40107 4.98181 5.08188C3.32472 6.76276 2.38508 9.00633 2.35906 11.3506C2.33596 13.0185 2.82972 14.6528 3.77343 16.0365L3.80723 16.093L3.84349 16.1748L3.84835 16.1858L3.85372 16.1965L11.053 30.5402L11.5 31.4308L11.9468 30.5401L19.1489 16.1823L19.1503 16.1796L19.19 16.0991L19.2292 16.0337C20.173 14.6498 20.6668 13.0152 20.6435 11.3471C20.6161 9.0057 19.6776 6.76517 18.0234 5.08552C16.3692 3.40583 14.1251 2.41455 11.7529 2.31296L11.7092 2.31108L11.6657 2.31686L11.5167 2.33666L11.3449 2.31606ZM13.3105 8.49503C12.9437 8.25386 12.5326 8.08635 12.1008 8.00174C11.6689 7.91712 11.2244 7.91697 10.7925 8.0013C10.3606 8.08563 9.94939 8.25285 9.58243 8.49378C9.21545 8.73472 8.89977 9.04474 8.65376 9.40649C8.40775 9.76827 8.23632 10.1746 8.14964 10.6023C8.06295 11.0301 8.0628 11.4705 8.14919 11.8983C8.23557 12.3261 8.40672 12.7325 8.65249 13.0944C8.89824 13.4564 9.21371 13.7666 9.58053 14.0078C10.3211 14.4947 11.2266 14.6717 12.0985 14.5015C12.9706 14.3313 13.7405 13.8269 14.2373 13.0963C14.7343 12.3654 14.9164 11.4689 14.7419 10.6045C14.5674 9.74033 14.0514 8.98213 13.3105 8.49503ZM16.6846 10.2091L17.1753 10.1133L16.6846 10.2092C16.8155 10.8793 16.8088 11.5683 16.6649 12.2358C16.521 12.9034 16.2426 13.5364 15.8458 14.0974C15.449 14.6585 14.9417 15.1364 14.3533 15.5027C13.2013 16.2199 11.8086 16.4662 10.4732 16.1878C9.13783 15.9095 7.96846 15.1292 7.21322 14.0166C6.45818 12.9043 6.17609 11.5471 6.42558 10.2346C6.6751 8.92182 7.43718 7.75474 8.55208 6.98412C9.12166 6.59042 9.76603 6.31242 10.4473 6.16685C11.1286 6.02128 11.8328 6.01117 12.5181 6.13712C13.2035 6.26308 13.8559 6.52249 14.437 6.89973C15.0181 7.27695 15.516 7.76427 15.9018 8.33265C16.2876 8.901 16.5536 9.53903 16.6846 10.2091Z" stroke="#312E89"/>
<path d="M19.2495 3.69772L19.2496 3.69782C21.2935 5.70697 22.458 8.41919 22.4982 11.2571L22.4982 11.2595C22.5363 13.267 21.962 15.2405 20.8475 16.9286L20.8312 16.9534L20.8178 16.98L11.9549 34.6562H11.0476L2.18187 16.9799L2.16869 16.9536L2.15251 16.929C1.0406 15.2408 0.466146 13.2668 0.501546 11.2588L0.501572 11.257C0.541155 8.41886 1.70529 5.70622 3.74901 3.69662C5.79222 1.68754 8.55343 0.53986 11.4461 0.5H11.5536C14.446 0.540447 17.2068 1.6885 19.2495 3.69772ZM11.3449 2.31606L11.3152 2.3125H11.2854H11.2825H11.2722L11.2619 2.31292C8.88683 2.41088 6.63883 3.40107 4.98181 5.08188C3.32472 6.76276 2.38508 9.00633 2.35906 11.3506C2.33596 13.0185 2.82972 14.6528 3.77343 16.0365L3.80723 16.093L3.84349 16.1748L3.84835 16.1858L3.85372 16.1965L11.053 30.5402L11.5 31.4308L11.9468 30.5401L19.1489 16.1823L19.1503 16.1796L19.19 16.0991L19.2292 16.0337C20.173 14.6498 20.6668 13.0152 20.6435 11.3471C20.6161 9.0057 19.6776 6.76517 18.0234 5.08552C16.3692 3.40583 14.1251 2.41455 11.7529 2.31296L11.7092 2.31108L11.6657 2.31686L11.5167 2.33666L11.3449 2.31606ZM13.3105 8.49503C12.9437 8.25386 12.5326 8.08635 12.1008 8.00174C11.6689 7.91712 11.2244 7.91697 10.7925 8.0013C10.3606 8.08563 9.94939 8.25285 9.58243 8.49378C9.21545 8.73472 8.89977 9.04474 8.65376 9.40649C8.40775 9.76827 8.23632 10.1746 8.14964 10.6023C8.06295 11.0301 8.0628 11.4705 8.14919 11.8983C8.23557 12.3261 8.40672 12.7325 8.65249 13.0944C8.89824 13.4564 9.21371 13.7666 9.58053 14.0078C10.3211 14.4947 11.2266 14.6717 12.0985 14.5015C12.9706 14.3313 13.7405 13.8269 14.2373 13.0963C14.7343 12.3654 14.9164 11.4689 14.7419 10.6045C14.5674 9.74033 14.0514 8.98213 13.3105 8.49503ZM16.6846 10.2091L17.1753 10.1133L16.6846 10.2092C16.8155 10.8793 16.8088 11.5683 16.6649 12.2358C16.521 12.9034 16.2426 13.5364 15.8458 14.0974C15.449 14.6585 14.9417 15.1364 14.3533 15.5027C13.2013 16.2199 11.8086 16.4662 10.4732 16.1878C9.13783 15.9095 7.96846 15.1292 7.21322 14.0166C6.45818 12.9043 6.17609 11.5471 6.42558 10.2346C6.6751 8.92182 7.43718 7.75474 8.55208 6.98412C9.12166 6.59042 9.76603 6.31242 10.4473 6.16685C11.1286 6.02128 11.8328 6.01117 12.5181 6.13712C13.2035 6.26308 13.8559 6.52249 14.437 6.89973C15.0181 7.27695 15.516 7.76427 15.9018 8.33265C16.2876 8.901 16.5536 9.53903 16.6846 10.2091Z" stroke="#03FE8A"/>
</svg>
