<svg width="25" height="22" viewBox="0 0 25 22" fill="none" xmlns="http://www.w3.org/2000/svg">
<path d="M21.9785 0.5H3.02148C1.57582 0.5 0.5 1.8106 0.5 3.28809V18.542C0.5 20.0139 1.57061 21.3301 3.02148 21.3301H21.9785C23.4205 21.3301 24.5 20.0239 24.5 18.542V3.28809C24.5 1.81619 23.4294 0.5 21.9785 0.5ZM4.42242 3.02539H20.5904L12.5412 12.1362L4.42242 3.02539ZM8.16948 10.8813L2.84766 16.905V4.90931L8.16948 10.8813ZM20.5905 18.8047H4.40951L9.79655 12.7072L11.6972 14.8401C11.6973 14.8401 11.6973 14.8401 11.6973 14.8401C12.1602 15.3597 12.9355 15.3576 13.3961 14.8361C13.3961 14.8361 13.3961 14.8361 13.3961 14.8361L15.2402 12.7488L20.5905 18.8047ZM16.8603 10.915L22.1523 4.92507V16.905L16.8603 10.915Z" fill="#030303"/>
<path d="M21.9785 0.5H3.02148C1.57582 0.5 0.5 1.8106 0.5 3.28809V18.542C0.5 20.0139 1.57061 21.3301 3.02148 21.3301H21.9785C23.4205 21.3301 24.5 20.0239 24.5 18.542V3.28809C24.5 1.81619 23.4294 0.5 21.9785 0.5ZM4.42242 3.02539H20.5904L12.5412 12.1362L4.42242 3.02539ZM8.16948 10.8813L2.84766 16.905V4.90931L8.16948 10.8813ZM20.5905 18.8047H4.40951L9.79655 12.7072L11.6972 14.8401C11.6973 14.8401 11.6973 14.8401 11.6973 14.8401C12.1602 15.3597 12.9355 15.3576 13.3961 14.8361C13.3961 14.8361 13.3961 14.8361 13.3961 14.8361L15.2402 12.7488L20.5905 18.8047ZM16.8603 10.915L22.1523 4.92507V16.905L16.8603 10.915Z" stroke="#312E89"/>
<path d="M21.9785 0.5H3.02148C1.57582 0.5 0.5 1.8106 0.5 3.28809V18.542C0.5 20.0139 1.57061 21.3301 3.02148 21.3301H21.9785C23.4205 21.3301 24.5 20.0239 24.5 18.542V3.28809C24.5 1.81619 23.4294 0.5 21.9785 0.5ZM4.42242 3.02539H20.5904L12.5412 12.1362L4.42242 3.02539ZM8.16948 10.8813L2.84766 16.905V4.90931L8.16948 10.8813ZM20.5905 18.8047H4.40951L9.79655 12.7072L11.6972 14.8401C11.6973 14.8401 11.6973 14.8401 11.6973 14.8401C12.1602 15.3597 12.9355 15.3576 13.3961 14.8361C13.3961 14.8361 13.3961 14.8361 13.3961 14.8361L15.2402 12.7488L20.5905 18.8047ZM16.8603 10.915L22.1523 4.92507V16.905L16.8603 10.915Z" stroke="#312E89"/>
<path d="M21.9785 0.5H3.02148C1.57582 0.5 0.5 1.8106 0.5 3.28809V18.542C0.5 20.0139 1.57061 21.3301 3.02148 21.3301H21.9785C23.4205 21.3301 24.5 20.0239 24.5 18.542V3.28809C24.5 1.81619 23.4294 0.5 21.9785 0.5ZM4.42242 3.02539H20.5904L12.5412 12.1362L4.42242 3.02539ZM8.16948 10.8813L2.84766 16.905V4.90931L8.16948 10.8813ZM20.5905 18.8047H4.40951L9.79655 12.7072L11.6972 14.8401C11.6973 14.8401 11.6973 14.8401 11.6973 14.8401C12.1602 15.3597 12.9355 15.3576 13.3961 14.8361C13.3961 14.8361 13.3961 14.8361 13.3961 14.8361L15.2402 12.7488L20.5905 18.8047ZM16.8603 10.915L22.1523 4.92507V16.905L16.8603 10.915Z" stroke="#03FE8A"/>
</svg>
