<svg width="25" height="26" viewBox="0 0 25 26" fill="none" xmlns="http://www.w3.org/2000/svg">
<path d="M5.27794 17.4405L5.27713 17.4395C3.37276 15.16 2.07727 13.0096 1.21664 10.6826C0.654676 9.17478 0.423639 7.88923 0.52203 6.65624L0.5222 6.65412L0.522204 6.65412C0.608776 5.62457 1.02942 4.72788 1.76308 3.99699L3.55226 2.21456L3.56074 2.20612L3.56084 2.20623C4.14985 1.64686 4.8523 1.33008 5.60822 1.33008C6.3658 1.33008 7.06403 1.64442 7.63634 2.20127C7.97034 2.50984 8.30638 2.84967 8.62128 3.17289C8.62133 3.17294 8.62138 3.17299 8.62143 3.17304L8.63352 3.18544C8.79222 3.34819 8.94384 3.50369 9.10414 3.66338L10.5281 5.08198C10.5284 5.08228 10.5287 5.08257 10.529 5.08287C11.1255 5.67205 11.471 6.38973 11.471 7.15353C11.471 7.91951 11.1189 8.63654 10.5297 9.22346C10.3809 9.37172 10.2356 9.51655 10.0954 9.66085L10.0937 9.66256C9.76781 9.99489 9.4269 10.3393 9.06668 10.6771C9.35502 11.2592 9.75014 11.8588 10.3126 12.5683C11.6374 14.186 13.0136 15.4336 14.5201 16.3866L14.5205 16.3869C14.6541 16.4716 14.8099 16.5519 15.0019 16.6475L15.0072 16.6502C15.0565 16.6747 15.1083 16.7005 15.1618 16.7276L16.6124 15.2825C17.1913 14.7058 17.9014 14.3694 18.6683 14.3694C19.4345 14.3694 20.1415 14.7053 20.7084 15.2905L23.5803 18.1516C24.174 18.743 24.4985 19.4575 24.5 20.2056C24.5015 20.9524 24.181 21.6729 23.5973 22.2791C23.5972 22.2791 23.5972 22.2792 23.5971 22.2793L23.237 21.9324C23.0169 22.1612 22.7873 22.3852 22.5624 22.5997L5.27794 17.4405ZM5.27794 17.4405C7.59994 20.2056 10.3973 22.3849 13.5904 23.9268L13.5944 23.9287C14.7973 24.4966 16.4614 25.1988 18.3348 25.3195L18.3348 25.3196L18.3453 25.3201L18.3613 25.3208C18.4643 25.3252 18.5754 25.3301 18.6922 25.3301C20.0142 25.3301 21.104 24.8682 21.9812 23.9224C21.988 23.9155 21.998 23.9049 22.0086 23.8926C22.0157 23.8844 22.0269 23.871 22.0399 23.853C22.2761 23.5718 22.5435 23.3133 22.8471 23.0199C22.8675 23.0002 22.888 22.9803 22.9088 22.9603L5.27794 17.4405ZM7.3113 10.8614L6.83714 11.02C6.8441 11.0408 6.85099 11.0581 6.85378 11.065L6.85727 11.0754L6.8643 11.0922C7.25468 12.0266 7.79374 12.9051 8.61404 13.9327L8.61402 13.9327L8.61701 13.9364C10.081 15.7351 11.6314 17.1406 13.3469 18.2263C13.5425 18.3529 13.7515 18.4581 13.925 18.5454C13.9584 18.5622 13.9905 18.5783 14.0209 18.5938L14.025 18.5959C14.217 18.6915 14.3729 18.7719 14.5065 18.8566L14.5282 18.8704L14.5482 18.8803C14.5492 18.8809 14.5508 18.8818 14.5532 18.8831C14.5602 18.8871 14.5785 18.8977 14.6009 18.9089C14.8209 19.0214 15.0509 19.082 15.2909 19.082C15.8851 19.082 16.2596 18.7088 16.3543 18.6144L16.3566 18.6122L16.0037 18.258L16.3566 18.6122L18.1457 16.8298C18.3627 16.6136 18.5445 16.5514 18.6683 16.5514C18.826 16.5514 18.9988 16.655 19.1493 16.8165L19.1558 16.8234L19.1625 16.8301L22.0469 19.6988L22.0472 19.6991M7.3113 10.8614L22.0472 19.6991M7.3113 10.8614L6.83714 11.02C6.78001 10.8493 6.71434 10.6002 6.74988 10.3122C6.787 10.0114 6.92777 9.71795 7.19761 9.44913L7.19762 9.44912L7.22153 9.42529L7.23228 9.41459L7.24366 9.40455C7.65522 9.04152 8.03168 8.66216 8.44185 8.24883C8.47434 8.21608 8.50705 8.18312 8.54 8.14994L8.54189 8.14805C8.61439 8.07583 8.68713 8.0022 8.76152 7.92689L8.76225 7.92615C8.83592 7.85157 8.91124 7.77533 8.98679 7.70006C9.23083 7.45694 9.28937 7.27657 9.28937 7.16307C9.28937 7.04956 9.23083 6.86919 8.98679 6.62607L7.56119 5.20585L7.5562 5.20088L7.55623 5.20084C7.47433 5.11692 7.39223 5.03396 7.30931 4.95016L7.30811 4.94894C7.22562 4.86558 7.14225 4.78132 7.05984 4.69683C7.01637 4.65289 6.97358 4.60954 6.93133 4.56674C6.65348 4.28531 6.399 4.02755 6.13043 3.77996L6.12171 3.77192L6.11338 3.76348C5.90811 3.5554 5.73267 3.49771 5.60822 3.49771C5.47295 3.49771 5.28611 3.56081 5.07754 3.76035L3.30125 5.52993C2.92655 5.90321 2.73325 6.3217 2.68592 6.83861C2.6177 7.69862 2.78207 8.67469 3.25851 9.94194L3.25913 9.94359C4.02963 12.0152 5.19771 13.9588 6.95331 16.0642C9.07507 18.5931 11.6301 20.5833 14.54 21.9864C15.6244 22.5006 17.0105 23.0742 18.4787 23.1681C18.5607 23.1729 18.6326 23.1767 18.697 23.1767C19.4086 23.1767 19.9267 22.9551 20.375 22.4776M7.3113 10.8614L20.375 22.4776M22.0472 19.6991C22.2709 19.9221 22.3278 20.0982 22.3268 20.2265C22.3257 20.3589 22.2621 20.5489 22.0255 20.7942L22.0255 20.7942L22.0205 20.7995C21.8295 21.0033 21.6273 21.2004 21.404 21.4133L21.4014 21.4159C21.3819 21.4348 21.3622 21.4538 21.3425 21.4729C21.0309 21.7741 20.6885 22.1052 20.375 22.4776M22.0472 19.6991L20.375 22.4776" fill="#131313"/>
<path d="M5.27794 17.4405L5.27713 17.4395C3.37276 15.16 2.07727 13.0096 1.21664 10.6826C0.654676 9.17478 0.423639 7.88923 0.52203 6.65624L0.5222 6.65412L0.522204 6.65412C0.608776 5.62457 1.02942 4.72788 1.76308 3.99699L3.55226 2.21456L3.56074 2.20612L3.56084 2.20623C4.14985 1.64686 4.8523 1.33008 5.60822 1.33008C6.3658 1.33008 7.06403 1.64442 7.63634 2.20127C7.97034 2.50984 8.30638 2.84967 8.62128 3.17289C8.62133 3.17294 8.62138 3.17299 8.62143 3.17304L8.63352 3.18544C8.79222 3.34819 8.94384 3.50369 9.10414 3.66338L10.5281 5.08198C10.5284 5.08228 10.5287 5.08257 10.529 5.08287C11.1255 5.67205 11.471 6.38973 11.471 7.15353C11.471 7.91951 11.1189 8.63654 10.5297 9.22346C10.3809 9.37172 10.2356 9.51655 10.0954 9.66085L10.0937 9.66256C9.76781 9.99489 9.4269 10.3393 9.06668 10.6771C9.35502 11.2592 9.75014 11.8588 10.3126 12.5683C11.6374 14.186 13.0136 15.4336 14.5201 16.3866L14.5205 16.3869C14.6541 16.4716 14.8099 16.5519 15.0019 16.6475L15.0072 16.6502C15.0565 16.6747 15.1083 16.7005 15.1618 16.7276L16.6124 15.2825C17.1913 14.7058 17.9014 14.3694 18.6683 14.3694C19.4345 14.3694 20.1415 14.7053 20.7084 15.2905L23.5803 18.1516C24.174 18.743 24.4985 19.4575 24.5 20.2056C24.5015 20.9524 24.181 21.6729 23.5973 22.2791C23.5972 22.2791 23.5972 22.2792 23.5971 22.2793L23.237 21.9324C23.0169 22.1612 22.7873 22.3852 22.5624 22.5997L5.27794 17.4405ZM5.27794 17.4405C7.59994 20.2056 10.3973 22.3849 13.5904 23.9268L13.5944 23.9287C14.7973 24.4966 16.4614 25.1988 18.3348 25.3195L18.3348 25.3196L18.3453 25.3201L18.3613 25.3208C18.4643 25.3252 18.5754 25.3301 18.6922 25.3301C20.0142 25.3301 21.104 24.8682 21.9812 23.9224C21.988 23.9155 21.998 23.9049 22.0086 23.8926C22.0157 23.8844 22.0269 23.871 22.0399 23.853C22.2761 23.5718 22.5435 23.3133 22.8471 23.0199C22.8675 23.0002 22.888 22.9803 22.9088 22.9603L5.27794 17.4405ZM7.3113 10.8614L6.83714 11.02C6.8441 11.0408 6.85099 11.0581 6.85378 11.065L6.85727 11.0754L6.8643 11.0922C7.25468 12.0266 7.79374 12.9051 8.61404 13.9327L8.61402 13.9327L8.61701 13.9364C10.081 15.7351 11.6314 17.1406 13.3469 18.2263C13.5425 18.3529 13.7515 18.4581 13.925 18.5454C13.9584 18.5622 13.9905 18.5783 14.0209 18.5938L14.025 18.5959C14.217 18.6915 14.3729 18.7719 14.5065 18.8566L14.5282 18.8704L14.5482 18.8803C14.5492 18.8809 14.5508 18.8818 14.5532 18.8831C14.5602 18.8871 14.5785 18.8977 14.6009 18.9089C14.8209 19.0214 15.0509 19.082 15.2909 19.082C15.8851 19.082 16.2596 18.7088 16.3543 18.6144L16.3566 18.6122L16.0037 18.258L16.3566 18.6122L18.1457 16.8298C18.3627 16.6136 18.5445 16.5514 18.6683 16.5514C18.826 16.5514 18.9988 16.655 19.1493 16.8165L19.1558 16.8234L19.1625 16.8301L22.0469 19.6988L22.0472 19.6991M7.3113 10.8614L22.0472 19.6991M7.3113 10.8614L6.83714 11.02C6.78001 10.8493 6.71434 10.6002 6.74988 10.3122C6.787 10.0114 6.92777 9.71795 7.19761 9.44913L7.19762 9.44912L7.22153 9.42529L7.23228 9.41459L7.24366 9.40455C7.65522 9.04152 8.03168 8.66216 8.44185 8.24883C8.47434 8.21608 8.50705 8.18312 8.54 8.14994L8.54189 8.14805C8.61439 8.07583 8.68713 8.0022 8.76152 7.92689L8.76225 7.92615C8.83592 7.85157 8.91124 7.77533 8.98679 7.70006C9.23083 7.45694 9.28937 7.27657 9.28937 7.16307C9.28937 7.04956 9.23083 6.86919 8.98679 6.62607L7.56119 5.20585L7.5562 5.20088L7.55623 5.20084C7.47433 5.11692 7.39223 5.03396 7.30931 4.95016L7.30811 4.94894C7.22562 4.86558 7.14225 4.78132 7.05984 4.69683C7.01637 4.65289 6.97358 4.60954 6.93133 4.56674C6.65348 4.28531 6.399 4.02755 6.13043 3.77996L6.12171 3.77192L6.11338 3.76348C5.90811 3.5554 5.73267 3.49771 5.60822 3.49771C5.47295 3.49771 5.28611 3.56081 5.07754 3.76035L3.30125 5.52993C2.92655 5.90321 2.73325 6.3217 2.68592 6.83861C2.6177 7.69862 2.78207 8.67469 3.25851 9.94194L3.25913 9.94359C4.02963 12.0152 5.19771 13.9588 6.95331 16.0642C9.07507 18.5931 11.6301 20.5833 14.54 21.9864C15.6244 22.5006 17.0105 23.0742 18.4787 23.1681C18.5607 23.1729 18.6326 23.1767 18.697 23.1767C19.4086 23.1767 19.9267 22.9551 20.375 22.4776M7.3113 10.8614L20.375 22.4776M22.0472 19.6991C22.2709 19.9221 22.3278 20.0982 22.3268 20.2265C22.3257 20.3589 22.2621 20.5489 22.0255 20.7942L22.0255 20.7942L22.0205 20.7995C21.8295 21.0033 21.6273 21.2004 21.404 21.4133L21.4014 21.4159C21.3819 21.4348 21.3622 21.4538 21.3425 21.4729C21.0309 21.7741 20.6885 22.1052 20.375 22.4776M22.0472 19.6991L20.375 22.4776" stroke="#312E89"/>
<path d="M5.27794 17.4405L5.27713 17.4395C3.37276 15.16 2.07727 13.0096 1.21664 10.6826C0.654676 9.17478 0.423639 7.88923 0.52203 6.65624L0.5222 6.65412L0.522204 6.65412C0.608776 5.62457 1.02942 4.72788 1.76308 3.99699L3.55226 2.21456L3.56074 2.20612L3.56084 2.20623C4.14985 1.64686 4.8523 1.33008 5.60822 1.33008C6.3658 1.33008 7.06403 1.64442 7.63634 2.20127C7.97034 2.50984 8.30638 2.84967 8.62128 3.17289C8.62133 3.17294 8.62138 3.17299 8.62143 3.17304L8.63352 3.18544C8.79222 3.34819 8.94384 3.50369 9.10414 3.66338L10.5281 5.08198C10.5284 5.08228 10.5287 5.08257 10.529 5.08287C11.1255 5.67205 11.471 6.38973 11.471 7.15353C11.471 7.91951 11.1189 8.63654 10.5297 9.22346C10.3809 9.37172 10.2356 9.51655 10.0954 9.66085L10.0937 9.66256C9.76781 9.99489 9.4269 10.3393 9.06668 10.6771C9.35502 11.2592 9.75014 11.8588 10.3126 12.5683C11.6374 14.186 13.0136 15.4336 14.5201 16.3866L14.5205 16.3869C14.6541 16.4716 14.8099 16.5519 15.0019 16.6475L15.0072 16.6502C15.0565 16.6747 15.1083 16.7005 15.1618 16.7276L16.6124 15.2825C17.1913 14.7058 17.9014 14.3694 18.6683 14.3694C19.4345 14.3694 20.1415 14.7053 20.7084 15.2905L23.5803 18.1516C24.174 18.743 24.4985 19.4575 24.5 20.2056C24.5015 20.9524 24.181 21.6729 23.5973 22.2791C23.5972 22.2791 23.5972 22.2792 23.5971 22.2793L23.237 21.9324C23.0169 22.1612 22.7873 22.3852 22.5624 22.5997L5.27794 17.4405ZM5.27794 17.4405C7.59994 20.2056 10.3973 22.3849 13.5904 23.9268L13.5944 23.9287C14.7973 24.4966 16.4614 25.1988 18.3348 25.3195L18.3348 25.3196L18.3453 25.3201L18.3613 25.3208C18.4643 25.3252 18.5754 25.3301 18.6922 25.3301C20.0142 25.3301 21.104 24.8682 21.9812 23.9224C21.988 23.9155 21.998 23.9049 22.0086 23.8926C22.0157 23.8844 22.0269 23.871 22.0399 23.853C22.2761 23.5718 22.5435 23.3133 22.8471 23.0199C22.8675 23.0002 22.888 22.9803 22.9088 22.9603L5.27794 17.4405ZM7.3113 10.8614L6.83714 11.02C6.8441 11.0408 6.85099 11.0581 6.85378 11.065L6.85727 11.0754L6.8643 11.0922C7.25468 12.0266 7.79374 12.9051 8.61404 13.9327L8.61402 13.9327L8.61701 13.9364C10.081 15.7351 11.6314 17.1406 13.3469 18.2263C13.5425 18.3529 13.7515 18.4581 13.925 18.5454C13.9584 18.5622 13.9905 18.5783 14.0209 18.5938L14.025 18.5959C14.217 18.6915 14.3729 18.7719 14.5065 18.8566L14.5282 18.8704L14.5482 18.8803C14.5492 18.8809 14.5508 18.8818 14.5532 18.8831C14.5602 18.8871 14.5785 18.8977 14.6009 18.9089C14.8209 19.0214 15.0509 19.082 15.2909 19.082C15.8851 19.082 16.2596 18.7088 16.3543 18.6144L16.3566 18.6122L16.0037 18.258L16.3566 18.6122L18.1457 16.8298C18.3627 16.6136 18.5445 16.5514 18.6683 16.5514C18.826 16.5514 18.9988 16.655 19.1493 16.8165L19.1558 16.8234L19.1625 16.8301L22.0469 19.6988L22.0472 19.6991M7.3113 10.8614L22.0472 19.6991M7.3113 10.8614L6.83714 11.02C6.78001 10.8493 6.71434 10.6002 6.74988 10.3122C6.787 10.0114 6.92777 9.71795 7.19761 9.44913L7.19762 9.44912L7.22153 9.42529L7.23228 9.41459L7.24366 9.40455C7.65522 9.04152 8.03168 8.66216 8.44185 8.24883C8.47434 8.21608 8.50705 8.18312 8.54 8.14994L8.54189 8.14805C8.61439 8.07583 8.68713 8.0022 8.76152 7.92689L8.76225 7.92615C8.83592 7.85157 8.91124 7.77533 8.98679 7.70006C9.23083 7.45694 9.28937 7.27657 9.28937 7.16307C9.28937 7.04956 9.23083 6.86919 8.98679 6.62607L7.56119 5.20585L7.5562 5.20088L7.55623 5.20084C7.47433 5.11692 7.39223 5.03396 7.30931 4.95016L7.30811 4.94894C7.22562 4.86558 7.14225 4.78132 7.05984 4.69683C7.01637 4.65289 6.97358 4.60954 6.93133 4.56674C6.65348 4.28531 6.399 4.02755 6.13043 3.77996L6.12171 3.77192L6.11338 3.76348C5.90811 3.5554 5.73267 3.49771 5.60822 3.49771C5.47295 3.49771 5.28611 3.56081 5.07754 3.76035L3.30125 5.52993C2.92655 5.90321 2.73325 6.3217 2.68592 6.83861C2.6177 7.69862 2.78207 8.67469 3.25851 9.94194L3.25913 9.94359C4.02963 12.0152 5.19771 13.9588 6.95331 16.0642C9.07507 18.5931 11.6301 20.5833 14.54 21.9864C15.6244 22.5006 17.0105 23.0742 18.4787 23.1681C18.5607 23.1729 18.6326 23.1767 18.697 23.1767C19.4086 23.1767 19.9267 22.9551 20.375 22.4776M7.3113 10.8614L20.375 22.4776M22.0472 19.6991C22.2709 19.9221 22.3278 20.0982 22.3268 20.2265C22.3257 20.3589 22.2621 20.5489 22.0255 20.7942L22.0255 20.7942L22.0205 20.7995C21.8295 21.0033 21.6273 21.2004 21.404 21.4133L21.4014 21.4159C21.3819 21.4348 21.3622 21.4538 21.3425 21.4729C21.0309 21.7741 20.6885 22.1052 20.375 22.4776M22.0472 19.6991L20.375 22.4776" stroke="#312E89"/>
<path d="M5.27794 17.4405L5.27713 17.4395C3.37276 15.16 2.07727 13.0096 1.21664 10.6826C0.654676 9.17478 0.423639 7.88923 0.52203 6.65624L0.5222 6.65412L0.522204 6.65412C0.608776 5.62457 1.02942 4.72788 1.76308 3.99699L3.55226 2.21456L3.56074 2.20612L3.56084 2.20623C4.14985 1.64686 4.8523 1.33008 5.60822 1.33008C6.3658 1.33008 7.06403 1.64442 7.63634 2.20127C7.97034 2.50984 8.30638 2.84967 8.62128 3.17289C8.62133 3.17294 8.62138 3.17299 8.62143 3.17304L8.63352 3.18544C8.79222 3.34819 8.94384 3.50369 9.10414 3.66338L10.5281 5.08198C10.5284 5.08228 10.5287 5.08257 10.529 5.08287C11.1255 5.67205 11.471 6.38973 11.471 7.15353C11.471 7.91951 11.1189 8.63654 10.5297 9.22346C10.3809 9.37172 10.2356 9.51655 10.0954 9.66085L10.0937 9.66256C9.76781 9.99489 9.4269 10.3393 9.06668 10.6771C9.35502 11.2592 9.75014 11.8588 10.3126 12.5683C11.6374 14.186 13.0136 15.4336 14.5201 16.3866L14.5205 16.3869C14.6541 16.4716 14.8099 16.5519 15.0019 16.6475L15.0072 16.6502C15.0565 16.6747 15.1083 16.7005 15.1618 16.7276L16.6124 15.2825C17.1913 14.7058 17.9014 14.3694 18.6683 14.3694C19.4345 14.3694 20.1415 14.7053 20.7084 15.2905L23.5803 18.1516C24.174 18.743 24.4985 19.4575 24.5 20.2056C24.5015 20.9524 24.181 21.6729 23.5973 22.2791C23.5972 22.2791 23.5972 22.2792 23.5971 22.2793L23.237 21.9324C23.0169 22.1612 22.7873 22.3852 22.5624 22.5997L5.27794 17.4405ZM5.27794 17.4405C7.59994 20.2056 10.3973 22.3849 13.5904 23.9268L13.5944 23.9287C14.7973 24.4966 16.4614 25.1988 18.3348 25.3195L18.3348 25.3196L18.3453 25.3201L18.3613 25.3208C18.4643 25.3252 18.5754 25.3301 18.6922 25.3301C20.0142 25.3301 21.104 24.8682 21.9812 23.9224C21.988 23.9155 21.998 23.9049 22.0086 23.8926C22.0157 23.8844 22.0269 23.871 22.0399 23.853C22.2761 23.5718 22.5435 23.3133 22.8471 23.0199C22.8675 23.0002 22.888 22.9803 22.9088 22.9603L5.27794 17.4405ZM7.3113 10.8614L6.83714 11.02C6.8441 11.0408 6.85099 11.0581 6.85378 11.065L6.85727 11.0754L6.8643 11.0922C7.25468 12.0266 7.79374 12.9051 8.61404 13.9327L8.61402 13.9327L8.61701 13.9364C10.081 15.7351 11.6314 17.1406 13.3469 18.2263C13.5425 18.3529 13.7515 18.4581 13.925 18.5454C13.9584 18.5622 13.9905 18.5783 14.0209 18.5938L14.025 18.5959C14.217 18.6915 14.3729 18.7719 14.5065 18.8566L14.5282 18.8704L14.5482 18.8803C14.5492 18.8809 14.5508 18.8818 14.5532 18.8831C14.5602 18.8871 14.5785 18.8977 14.6009 18.9089C14.8209 19.0214 15.0509 19.082 15.2909 19.082C15.8851 19.082 16.2596 18.7088 16.3543 18.6144L16.3566 18.6122L16.0037 18.258L16.3566 18.6122L18.1457 16.8298C18.3627 16.6136 18.5445 16.5514 18.6683 16.5514C18.826 16.5514 18.9988 16.655 19.1493 16.8165L19.1558 16.8234L19.1625 16.8301L22.0469 19.6988L22.0472 19.6991M7.3113 10.8614L22.0472 19.6991M7.3113 10.8614L6.83714 11.02C6.78001 10.8493 6.71434 10.6002 6.74988 10.3122C6.787 10.0114 6.92777 9.71795 7.19761 9.44913L7.19762 9.44912L7.22153 9.42529L7.23228 9.41459L7.24366 9.40455C7.65522 9.04152 8.03168 8.66216 8.44185 8.24883C8.47434 8.21608 8.50705 8.18312 8.54 8.14994L8.54189 8.14805C8.61439 8.07583 8.68713 8.0022 8.76152 7.92689L8.76225 7.92615C8.83592 7.85157 8.91124 7.77533 8.98679 7.70006C9.23083 7.45694 9.28937 7.27657 9.28937 7.16307C9.28937 7.04956 9.23083 6.86919 8.98679 6.62607L7.56119 5.20585L7.5562 5.20088L7.55623 5.20084C7.47433 5.11692 7.39223 5.03396 7.30931 4.95016L7.30811 4.94894C7.22562 4.86558 7.14225 4.78132 7.05984 4.69683C7.01637 4.65289 6.97358 4.60954 6.93133 4.56674C6.65348 4.28531 6.399 4.02755 6.13043 3.77996L6.12171 3.77192L6.11338 3.76348C5.90811 3.5554 5.73267 3.49771 5.60822 3.49771C5.47295 3.49771 5.28611 3.56081 5.07754 3.76035L3.30125 5.52993C2.92655 5.90321 2.73325 6.3217 2.68592 6.83861C2.6177 7.69862 2.78207 8.67469 3.25851 9.94194L3.25913 9.94359C4.02963 12.0152 5.19771 13.9588 6.95331 16.0642C9.07507 18.5931 11.6301 20.5833 14.54 21.9864C15.6244 22.5006 17.0105 23.0742 18.4787 23.1681C18.5607 23.1729 18.6326 23.1767 18.697 23.1767C19.4086 23.1767 19.9267 22.9551 20.375 22.4776M7.3113 10.8614L20.375 22.4776M22.0472 19.6991C22.2709 19.9221 22.3278 20.0982 22.3268 20.2265C22.3257 20.3589 22.2621 20.5489 22.0255 20.7942L22.0255 20.7942L22.0205 20.7995C21.8295 21.0033 21.6273 21.2004 21.404 21.4133L21.4014 21.4159C21.3819 21.4348 21.3622 21.4538 21.3425 21.4729C21.0309 21.7741 20.6885 22.1052 20.375 22.4776M22.0472 19.6991L20.375 22.4776" stroke="#03FE8A"/>
</svg>
