<svg width="22" height="22" viewBox="0 0 22 22" fill="none" xmlns="http://www.w3.org/2000/svg">
<g opacity="0.4">
<path d="M6.10701 17.8763C6.85109 17.0777 7.98532 17.1413 8.63866 18.0124L9.55515 19.2374C10.2901 20.2083 11.4788 20.2083 12.2138 19.2374L13.1303 18.0124C13.7837 17.1413 14.9179 17.0777 15.662 17.8763C17.2772 19.6003 18.5929 19.0287 18.5929 16.6149V6.39753C18.5929 2.74068 17.74 1.82422 14.31 1.82422H7.44996C4.01996 1.82422 3.16699 2.74068 3.16699 6.39753V16.6149C3.17607 19.0287 4.5009 19.5913 6.10701 17.8763Z" fill="#312E89"/>
<path d="M6.10701 17.8763C6.85109 17.0777 7.98532 17.1413 8.63866 18.0124L9.55515 19.2374C10.2901 20.2083 11.4788 20.2083 12.2138 19.2374L13.1303 18.0124C13.7837 17.1413 14.9179 17.0777 15.662 17.8763C17.2772 19.6003 18.5929 19.0287 18.5929 16.6149V6.39753C18.5929 2.74068 17.74 1.82422 14.31 1.82422H7.44996C4.01996 1.82422 3.16699 2.74068 3.16699 6.39753V16.6149C3.17607 19.0287 4.5009 19.5913 6.10701 17.8763Z" fill="#312E89"/>
<path d="M6.10701 17.8763C6.85109 17.0777 7.98532 17.1413 8.63866 18.0124L9.55515 19.2374C10.2901 20.2083 11.4788 20.2083 12.2138 19.2374L13.1303 18.0124C13.7837 17.1413 14.9179 17.0777 15.662 17.8763C17.2772 19.6003 18.5929 19.0287 18.5929 16.6149V6.39753C18.5929 2.74068 17.74 1.82422 14.31 1.82422H7.44996C4.01996 1.82422 3.16699 2.74068 3.16699 6.39753V16.6149C3.17607 19.0287 4.5009 19.5913 6.10701 17.8763Z" fill="#03FE8A"/>
</g>
<path d="M13.4659 9.06485L13.0122 9.52764H13.0031L10.2537 12.2771C10.1357 12.395 9.89072 12.5221 9.71831 12.5402L8.49331 12.7217C8.04868 12.7852 7.74018 12.4676 7.8037 12.0321L7.97611 10.798C8.00333 10.6256 8.12127 10.3897 8.23924 10.2626L10.9978 7.51319L11.4515 7.0504C11.7509 6.75096 12.0867 6.5332 12.4496 6.5332C12.7581 6.5332 13.0939 6.67837 13.4659 7.0504C14.2826 7.86707 14.0194 8.51133 13.4659 9.06485Z" fill="#312E89"/>
<path d="M13.4659 9.06485L13.0122 9.52764H13.0031L10.2537 12.2771C10.1357 12.395 9.89072 12.5221 9.71831 12.5402L8.49331 12.7217C8.04868 12.7852 7.74018 12.4676 7.8037 12.0321L7.97611 10.798C8.00333 10.6256 8.12127 10.3897 8.23924 10.2626L10.9978 7.51319L11.4515 7.0504C11.7509 6.75096 12.0867 6.5332 12.4496 6.5332C12.7581 6.5332 13.0939 6.67837 13.4659 7.0504C14.2826 7.86707 14.0194 8.51133 13.4659 9.06485Z" fill="#312E89"/>
<path d="M13.4659 9.06485L13.0122 9.52764H13.0031L10.2537 12.2771C10.1357 12.395 9.89072 12.5221 9.71831 12.5402L8.49331 12.7217C8.04868 12.7852 7.74018 12.4676 7.8037 12.0321L7.97611 10.798C8.00333 10.6256 8.12127 10.3897 8.23924 10.2626L10.9978 7.51319L11.4515 7.0504C11.7509 6.75096 12.0867 6.5332 12.4496 6.5332C12.7581 6.5332 13.0939 6.67837 13.4659 7.0504C14.2826 7.86707 14.0194 8.51133 13.4659 9.06485Z" fill="#03FE8A"/>
</svg>
